<?xml version="1.0" encoding="utf-8"?>
<!-- Generator: Adobe Illustrator 18.0.0, SVG Export Plug-In . SVG Version: 6.00 Build 0)  -->
<!DOCTYPE svg PUBLIC "-//W3C//DTD SVG 1.1 Tiny//EN" "http://www.w3.org/Graphics/SVG/1.1/DTD/svg11-tiny.dtd">
<svg version="1.1" baseProfile="tiny" id="图层_1"
	 xmlns="http://www.w3.org/2000/svg" xmlns:xlink="http://www.w3.org/1999/xlink" x="0px" y="0px" viewBox="0 0 100 100"
	 xml:space="preserve">
<circle fill="#F8B62D" cx="50.5" cy="38.5" r="17"/>
<g>
	<path fill="none" stroke="#000000" stroke-width="2" stroke-miterlimit="10" d="M51.3,81.7c-5.3,0-9.8-0.3-14.1-1.5
		c-2.6-0.7-5.1-1.6-7.2-3.4c-0.1,0-0.1-0.1-0.2-0.1c-1-0.8-1.6-1.8-1.4-3.2c0.2-2.4,0.3-4.9,0.5-7.3c0.2-2.2,0.7-4.4,1.8-6.3
		c1.3-2.2,3.2-3.6,5.5-4.6c2.5-1,5.1-1.6,7.7-2.1c0.1,0,0.4,0.1,0.5,0.2c1.5,1.4,3.3,2,5.2,2.1c2,0.2,3.9-0.1,5.6-1.1
		c0.5-0.3,0.9-0.5,1.3-0.9c0.3-0.3,0.6-0.4,1-0.3c2.3,0.5,4.5,1,6.7,1.8c4.3,1.6,6.8,4.5,7.6,9c0.4,2.2,0.5,4.4,0.7,6.6
		c0.1,1.3,0.1,2.6,0.1,4c0,0.4-0.2,0.8-0.4,1.1c-1.4,1.7-3.3,2.7-5.3,3.5c-3.6,1.4-7.3,2-11.1,2.3C54,81.5,52.2,81.6,51.3,81.7z"/>
	<path fill="none" stroke="#000000" stroke-width="2" stroke-miterlimit="10" d="M38.7,36.7c0.1-2.2,0.3-4.3,0.9-6.4
		c1.2-3.8,3.9-5.9,7.7-6.5c2.5-0.4,5-0.4,7.5,0.3c3.1,0.8,5.3,2.8,6.3,5.9c1.3,4.3,1.6,8.7,0.2,13c-1.1,3.6-3.3,6.5-6.8,8.1
		c-3.8,1.7-7.4,1-10.6-1.6c-3-2.5-4.5-5.9-4.9-9.7C38.8,38.7,38.8,37.7,38.7,36.7z"/>
</g>
</svg>
