<?xml version="1.0" encoding="utf-8"?>
<!-- Generator: Adobe Illustrator 18.0.0, SVG Export Plug-In . SVG Version: 6.00 Build 0)  -->
<!DOCTYPE svg PUBLIC "-//W3C//DTD SVG 1.1 Tiny//EN" "http://www.w3.org/Graphics/SVG/1.1/DTD/svg11-tiny.dtd">
<svg version="1.1" baseProfile="tiny" id="图层_1"
	 xmlns="http://www.w3.org/2000/svg" xmlns:xlink="http://www.w3.org/1999/xlink" x="0px" y="0px" viewBox="0 0 100 100"
	 xml:space="preserve">
<g>
	<path fill="none" stroke="#000000" stroke-width="2" stroke-linecap="round" stroke-linejoin="round" stroke-miterlimit="10" d="
		M74.8,55.3V44.1h-7.6c-0.2-0.7-0.5-1.4-0.9-2.1l5.3-5.3l-7.9-7.9l-5.3,5.3c-0.7-0.3-1.4-0.6-2.1-0.9v-7.6H45.2v7.6
		c-0.7,0.2-1.4,0.5-2.1,0.9l-5.3-5.3l-7.9,7.9l5.3,5.3c-0.3,0.7-0.6,1.4-0.9,2.1h-7.6v11.2h7.6c0.2,0.7,0.5,1.4,0.9,2.1l-5.3,5.3
		l7.9,7.9l5.3-5.3c0.7,0.3,1.4,0.6,2.1,0.9v7.6h11.2v-7.6c0.7-0.2,1.4-0.5,2.1-0.9l5.3,5.3l7.9-7.9l-5.3-5.3
		c0.3-0.7,0.6-1.4,0.9-2.1H74.8z M50.8,58.2c-4.7,0-8.5-3.8-8.5-8.5c0-4.7,3.8-8.5,8.5-8.5c4.7,0,8.5,3.8,8.5,8.5
		C59.3,54.4,55.5,58.2,50.8,58.2z"/>
	
		<circle fill="none" stroke="#000000" stroke-width="2" stroke-linecap="round" stroke-linejoin="round" stroke-miterlimit="10" cx="50.8" cy="49.7" r="8.5"/>
</g>
</svg>
