<?xml version="1.0" encoding="utf-8"?>
<!-- Generator: Adobe Illustrator 18.0.0, SVG Export Plug-In . SVG Version: 6.00 Build 0)  -->
<!DOCTYPE svg PUBLIC "-//W3C//DTD SVG 1.1 Tiny//EN" "http://www.w3.org/Graphics/SVG/1.1/DTD/svg11-tiny.dtd">
<svg version="1.1" baseProfile="tiny" id="图层_1"
	 xmlns="http://www.w3.org/2000/svg" xmlns:xlink="http://www.w3.org/1999/xlink" x="0px" y="0px" viewBox="0 0 1024 1024"
	 xml:space="preserve">
<g>
	<path fill="#F8B62D" stroke="#000000" stroke-miterlimit="10" d="M814,1024H210C94,1024,0,930,0,814V210C0,94,94,0,210,0h604
		c116,0,210,94,210,210v604C1024,930,930,1024,814,1024z"/>
	<g>
		<text transform="matrix(1 0 0 1 168.021 913.6619)" font-family="'zcool-gdh'" font-size="251.988">狗仔队</text>
		<g>
			<path d="M68,530.5c0-12.1,0-24.3,0-36.4c3.9-24.6,11.5-48.4,10.8-74c-1.4-48,12.9-91.8,42.9-129.6
				c46.9-59.2,109.4-87.2,184.1-87.6c134.4-0.6,268.8-0.4,403.2-0.1c60,0.1,113.6,18.7,158.4,59.5c40.5,36.9,64.2,82.5,68.2,137.6
				c0.7,8.9,0.1,18.1,2.1,26.7c5.5,23.2,12.1,46.1,18.3,69.1c0,11.6,0,23.1,0,34.7c-0.6,2.5-1.1,5-1.7,7.5
				c-4.8,18.4-7.5,37.6-14.7,54.9C888.2,716.9,732.4,760,625.3,679c-69-52.2-95.2-123.4-79.6-208c9.9-53.8,39.7-96.6,84.9-128
				c2.7-1.9,5.3-3.9,9.5-7.1C553.9,320.1,470,320.3,384,336c4.1,3.1,6.3,4.8,8.6,6.5c73.1,51,104.9,136.3,83.1,222.8
				c-27.5,109.3-142.2,177.4-251,148.4c-71.1-19-119.9-63.5-144.8-132.9C74.2,564.6,71.9,547.3,68,530.5z M749.1,376
				c-76-0.5-137.1,60.4-137.8,137.1c-0.7,74.1,61.6,136.5,136.7,136.9c75.1,0.5,138.2-62.1,137.8-136.7
				C885.4,436.9,825.2,376.4,749.1,376z M275.2,376c-76.3,0.3-137.8,62.2-137.1,138c0.7,74.9,62.9,136.5,137.6,136.1
				c75.2-0.4,137.4-62.4,137.1-136.6C412.3,436.8,351.2,375.7,275.2,376z"/>
			<path fill="#FFFFFF" d="M749.1,376c76.1,0.5,136.3,61,136.7,137.4c0.4,74.6-62.6,137.2-137.8,136.7
				c-75.1-0.5-137.4-62.8-136.7-136.9C612,436.3,673.1,375.5,749.1,376z M821.9,500c-32.4-7.2-55-24.5-62.6-57.8
				c-40.1-3.1-73.4,27.3-74.3,66.9c-0.9,39.8,32.8,74.5,76.4,70.2C798.1,575.6,828.8,541,821.9,500z"/>
			<path fill="#FFFFFF" d="M275.2,376c76-0.3,137.1,60.8,137.5,137.4c0.4,74.2-61.9,136.3-137.1,136.6
				c-74.7,0.4-137-61.2-137.6-136.1C137.4,438.1,198.9,376.3,275.2,376z M268,449.8c-1.8,28.4-34.8,54.1-56.5,56.3
				c-5,0.5-7.1,2.6-6.4,6.9c1.7,11.3,1.8,23.4,6.2,33.6c13.5,30.7,43.2,45.6,76.6,39.5c26.9-5,51.8-28.8,54.8-62.2
				C346.3,482.5,310,445.4,268,449.8z"/>
			<path d="M284.7,178.6c-61.5,0.9-114.3,20.4-159.5,61.2c3.2-5.1-4.5-5.5,8.8-83.5c8.9-30.1,15.2-49.9,40.1-63.3
				C203,77.3,261.8,156.4,284.7,178.6z"/>
			<path d="M739.3,178.6c61.5,0.9,114.3,20.4,159.5,61.2c-3.2-5.1,4.5-5.5-8.8-83.5c-8.9-30.1-15.2-49.9-40.1-63.3
				C821,77.3,762.2,156.4,739.3,178.6z"/>
			<path d="M821.9,500c6.9,41.1-23.9,75.7-60.4,79.3c-43.7,4.3-77.3-30.3-76.4-70.2c0.9-39.6,34.2-70,74.3-66.9
				C767,475.5,789.5,492.8,821.9,500z"/>
			<path d="M268,449.8c42-4.4,78.3,32.7,74.7,74.1c-2.9,33.4-27.9,57.2-54.8,62.2c-33.4,6.2-63.1-8.7-76.6-39.5
				c-4.4-10.2-4.5-22.3-6.2-33.6c-0.7-4.4,1.4-6.4,6.4-6.9C233.2,503.9,266.2,478.2,268,449.8z"/>
		</g>
	</g>
</g>
</svg>
