<?xml version="1.0" encoding="utf-8"?>
<!-- Generator: Adobe Illustrator 18.0.0, SVG Export Plug-In . SVG Version: 6.00 Build 0)  -->
<!DOCTYPE svg PUBLIC "-//W3C//DTD SVG 1.1 Tiny//EN" "http://www.w3.org/Graphics/SVG/1.1/DTD/svg11-tiny.dtd">
<svg version="1.1" baseProfile="tiny" id="图层_1"
	 xmlns="http://www.w3.org/2000/svg" xmlns:xlink="http://www.w3.org/1999/xlink" x="0px" y="0px" viewBox="0 0 100 100"
	 xml:space="preserve">
<path fill="none" stroke="#000000" stroke-width="2" stroke-linejoin="round" stroke-miterlimit="10" d="M39.8,30.3
	c0,13.5,0,26.9,0,40.4c-0.4-0.3-0.8-0.6-1.1-0.9c-3.6-2.8-7.1-5.6-10.7-8.4c-0.9-0.7-1.8-1-3-0.9c-2,0.1-4,0-6,0
	c-0.7,0-1.3-0.1-1.7-0.7c-0.2-0.3-0.5-0.8-0.5-1.2c0-5.4,0-10.9,0-16.3c0-1,0.9-1.9,2-1.9c2,0,3.9-0.1,5.9,0
	c1.7,0.1,3.1-0.4,4.3-1.4c2.9-2.3,5.8-4.6,8.7-6.9C38.3,31.6,39,31,39.8,30.3z"/>
<path fill="none" stroke="#000000" stroke-width="2" stroke-linecap="round" stroke-linejoin="round" stroke-miterlimit="10" d="
	M49.1,41c0,0,9.3,7.9,0,18.8"/>
<path fill="none" stroke="#000000" stroke-width="2" stroke-linecap="round" stroke-linejoin="round" stroke-miterlimit="10" d="
	M54.7,34.9c0,0,17.5,13.8,0,31.1"/>
<path fill="none" stroke="#000000" stroke-width="2" stroke-linecap="round" stroke-linejoin="round" stroke-miterlimit="10" d="
	M61,29c0,0,23.2,20.4,0,42.6"/>
</svg>
