<?xml version="1.0" encoding="utf-8"?>
<!-- Generator: Adobe Illustrator 18.0.0, SVG Export Plug-In . SVG Version: 6.00 Build 0)  -->
<!DOCTYPE svg PUBLIC "-//W3C//DTD SVG 1.1 Tiny//EN" "http://www.w3.org/Graphics/SVG/1.1/DTD/svg11-tiny.dtd">
<svg version="1.1" baseProfile="tiny" id="图层_1"
	 xmlns="http://www.w3.org/2000/svg" xmlns:xlink="http://www.w3.org/1999/xlink" x="0px" y="0px" viewBox="0 0 100 100"
	 xml:space="preserve">
<g>
	<path d="M49.5,11.4c0,1.1,0,2.2,0,3.7c-13.6,0-27.2,0-40.9,0c0,23,0,45.7,0,68.5c24.6,0,49.2,0,74.1,0c0-9.3,0-18.5,0-27.9
		c1.4,0,2.6,0,4,0c0,5.3,0,10.4,0,15.5c0,3.9,0,7.8,0,11.7c0,3.4-1.4,4.9-4.9,4.9c-24.1,0-48.2,0-72.3,0c-3.6,0-4.9-1.3-4.9-5
		c0-22.3,0-44.5,0-66.8c0-3.3,1.3-4.8,4.3-4.8c13.2-0.1,26.5,0,39.7,0C48.9,11.2,49.1,11.3,49.5,11.4z"/>
	<path d="M80.9,46.7c-0.3-3.1-0.3-5.6,2.1-7.8c3.1-2.8,5.8-6.1,8.7-9.1c-0.1-0.3-0.2-0.6-0.2-0.8c-4.7,0.6-9.5,0.9-14.1,1.9
		C68,32.9,60.2,37.3,56,46.5c-0.9,1.9-1.7,4-1.9,6c-0.2,2.9-1.5,3.4-4.4,2.6c0.3-1.9,0.4-4,0.9-5.9C53,39.9,59,33.6,67.6,29.8
		c6.6-3,13.6-4.1,20.8-4.4c1,0,1.9,0,3.7,0c-1.1-1.1-1.7-1.7-2.4-2.3c-2-1.8-4-3.5-5.9-5.3c-3.3-3-3.3-3-2.9-8
		c0.7,0.6,1.3,1,1.8,1.5c4.4,4.2,8.7,8.5,13.1,12.8c1.6,1.6,1.7,4.5,0.2,6.1c-4.7,5.3-9.5,10.5-14.2,15.7
		C81.7,46.2,81.4,46.4,80.9,46.7z"/>
</g>
</svg>
