<?xml version="1.0" encoding="utf-8"?>
<!-- Generator: Adobe Illustrator 18.0.0, SVG Export Plug-In . SVG Version: 6.00 Build 0)  -->
<!DOCTYPE svg PUBLIC "-//W3C//DTD SVG 1.1 Tiny//EN" "http://www.w3.org/Graphics/SVG/1.1/DTD/svg11-tiny.dtd">
<svg version="1.1" baseProfile="tiny" id="图层_1"
	 xmlns="http://www.w3.org/2000/svg" xmlns:xlink="http://www.w3.org/1999/xlink" x="0px" y="0px" viewBox="0 0 949.7 707.1"
	 xml:space="preserve">
<g>
	<path d="M929.7,693.7H28.3c-11,0-20-9-20-20V20c0-11,9-20,20-20h901.4c11,0,20,9,20,20v653.7C949.7,684.7,940.7,693.7,929.7,693.7z
		"/>
	<text transform="matrix(1 0 0 1 185.9539 198.3859)" fill="#F8B62D" font-family="'PingFang-SC-Regular'" font-size="123.0202">用户名错误</text>
	<g>
		<path fill="#F8B62D" d="M539,630.6c-33.9,0-67.7,0-102.3,0c8.1,9.4,16.8,17.2,22.5,26.8c4.1,6.9,4.5,16.1,5.8,24.4
			c0.2,1.3-3.6,3.8-5.8,4.4c-0.9,0.3-4-3-4-4.6c-0.4-20.7-16-31.1-28.9-43c-20.2-18.5-44.4-27.3-71.8-27.1c-4.3,0-9.2,0.2-12.6,2.4
			c-3.9,2.4-6.5,7.1-9.6,10.8c3.4,2.8,6.6,6,10.3,8.2c11.8,7,24.6,12.6,35.5,20.7c8.7,6.6,9.5,17.3,4.2,27.1
			c-1.4,2.6-5.9,3.6-8.9,5.4c-0.7-3-2.7-6.7-1.7-9c4.4-9.9,0-16.5-7.7-21.1c-7.7-4.6-16.6-7.5-24.6-11.7c-5.6-3-10.6-7.2-16.1-10.4
			c-3.1-1.8-6.8-3.6-10.2-3.7c-28.9-0.5-36.7-7.9-36.8-37.1c-0.2-76.8-0.1-153.5,0-230.3c0-17.4,10.1-27.6,27.3-27.6
			c88.7-0.1,177.4-0.1,266-0.1c27.8,0,55.7-0.1,83.5,0c18.9,0.1,28.8,9.9,28.8,28.6c0,75.2,0.2,150.3-0.2,225.5
			c0,9.3-2.4,18.6-4.2,27.8c-0.4,2.1-2.4,4.3-4.3,5.5c-13.2,8.1-26.4,16.1-39.8,23.8c-6.1,3.5-13.1,5.8-19,9.6
			c-7.6,4.9-11.4,11.7-8.3,21.4c0.8,2.4-1.5,5.9-2.4,8.9c-2.8-1.7-6.6-2.7-8.1-5.1c-5.8-9.3-2.6-24.4,8.2-31.7
			c9.7-6.6,21.1-10.6,31.5-16.3c3.8-2.1,6.8-5.7,10.2-8.6c-3.3-3.6-5.9-9-9.9-10.5c-17.9-6.4-36.7-3.3-52.1,5
			c-18.5,10-34.7,24.6-50.6,38.7c-5.2,4.6-5.9,14-9,21c-1.3,2.9-3.4,5.4-5.1,8.1c-2.3-2.6-7.2-6.2-6.6-7.8
			c3.9-10.9,8.1-21.9,14-31.9c3.2-5.4,10-8.8,15.1-13.1C540.5,633,539.8,631.8,539,630.6z M573.5,612.9c-9.8-19.4-5.1-35.4-0.3-52.2
			c3.4-11.9,6.9-26.1,3.3-37c-8.8-26.6-10-53.2-7.9-80.8c0.2-0.1,0.9-0.9,1.5-0.9c27-0.3,54-0.6,81-0.6c1.9,0,5.4,2.1,5.4,3.4
			c0.1,2.2-1.7,4.6-3.1,6.7c-2.1,3.1-6.2,5.9-6.4,8.9c-0.7,13.6-2,27.6,0.1,40.9c3.5,22.3,6.4,44-3,65.5
			c-8.2,18.8-6.3,29.6,8.4,44.4c2.4,2.4,7.6,5.8,8.9,4.9c3.5-2.5,7.3-6.6,8-10.6c1.3-8.2,0.8-16.6,0.8-25c0-70.8-0.2-141.6,0-212.3
			c0-17.1-4.2-21.8-21.7-21.8c-112.9,0-225.9,0-338.8,0c-17.4,0-21.7,4.6-21.7,21.8c0.2,44.9,0,89.9,0,134.8
			c0,32.6-0.3,65.2,0.7,97.8c0.2,5.5,4.5,13.4,9.2,15.8c14.4,7.3,36.4-4.3,38.5-20.5c1.2-9.3-0.2-19.6-3.1-28.6
			c-7.8-24.4-6.4-48.5-0.4-72.8c3.7-14.8,1.9-28.9-6.5-41.9c-1.7-2.6-3.2-5.3-4.8-8c2.8-1.1,5.5-3,8.3-3.1c20.7-0.4,41.3-0.7,62-0.4
			c17.3,0.3,16.8,0.7,18.1,17.6c1.5,19.7-0.1,38.6-7,57.4c-5.3,14.1-3.4,28.6,0.8,43.3c3.6,12.7,5.8,26.3,5.6,39.5
			c-0.2,14.9,1.8,19.2,17.7,19.3c39.8,0.3,79.5,0.5,119.3,0C554.7,618.3,563.2,615,573.5,612.9z M352.7,597.5
			c10.9,1.8,23,3.2,34.8,6c6.3,1.5,10-0.2,10.2-5.8c0.3-8.1,0.6-16.8-2-24.3c-8.1-23.7-10-46.4-1.3-70.8c4.6-12.8,2.9-28,3.2-42.1
			c0-2.7-4.1-7.9-6.5-8c-16.1-0.7-32.2-0.4-50.1-0.4c7.2,21.3,4.1,40.5,0.4,60.2c-2.5,12.9-1.7,26.9,0.2,40
			C343.7,567.7,348.8,582.6,352.7,597.5z M626.9,597.8c1.5-11,0.7-22,4.7-30.8c7.2-16,8.9-32.3,6.1-48.8
			c-3.7-21.4-9.6-42.5-0.6-65.7c-16.9,0-31.5,0.5-46.1-0.2c-8.5-0.4-12.1,3.3-11.6,10.8c1,14.1,0.3,29.1,4.8,42.1
			c8,22.9,6.5,44.1-1.9,66c-4.2,10.8-5.6,22.1-0.1,32.3C598.3,601.5,613.1,599.6,626.9,597.8z"/>
		<path fill="#F8B62D" d="M442.5,574.4c-1.8-1.4-5-2.6-5.1-4.1c-0.2-2.3,1.1-5.9,2.9-6.8c11.9-6.4,23.9-12.5,36.2-18.1
			c2.3-1.1,6.2,0.3,9,1.4c11.4,4.7,22.8,9.4,33.8,14.9c2.8,1.4,4.3,5.6,6.4,8.5c-3.8,0.7-7.6,1.6-11.5,2c-1,0.1-2.2-0.8-3.2-1.5
			c-20.6-13.7-41.1-16.2-61.4,0.7C447.8,572.9,445.2,573.3,442.5,574.4z"/>
		<path fill="#F8B62D" d="M457.8,430.3c-22.3-2.6-39.2-11.7-54.6-23.7c-1.8-1.4-1.6-5.5-2.3-8.3c2.8-0.4,6.4-2.2,8.2-1
			c15.9,10.5,31.9,20.4,51.7,21.8c1.5,0.1,4.3,5.3,3.8,5.9C462.3,427.5,459.1,429.3,457.8,430.3z"/>
		<path fill="#F8B62D" d="M504.2,430.3c-1.4-1.1-4.1-3.2-6.9-5.3c2.7-2.2,5-5.1,8.1-6.5c14.6-6.6,29.3-12.9,44.2-18.9
			c3.6-1.5,7.8-1.5,11.7-2.2c-1.6,3.9-2.2,9.1-5.1,11.4C541.7,420.3,525.2,427.7,504.2,430.3z"/>
	</g>
</g>
</svg>
