<?xml version="1.0" encoding="utf-8"?>
<!-- Generator: Adobe Illustrator 18.0.0, SVG Export Plug-In . SVG Version: 6.00 Build 0)  -->
<!DOCTYPE svg PUBLIC "-//W3C//DTD SVG 1.1 Tiny//EN" "http://www.w3.org/Graphics/SVG/1.1/DTD/svg11-tiny.dtd">
<svg version="1.1" baseProfile="tiny" id="图层_1"
	 xmlns="http://www.w3.org/2000/svg" xmlns:xlink="http://www.w3.org/1999/xlink" x="0px" y="0px" viewBox="0 0 1024 1024"
	 xml:space="preserve">
<circle fill="#F8B62D" cx="227.3" cy="354.4" r="18.1"/>
<circle fill="#F8B62D" cx="311.9" cy="353.7" r="18.1"/>
<circle fill="#F8B62D" cx="411.9" cy="324.8" r="10.4"/>
<circle fill="#F8B62D" cx="480.5" cy="335.5" r="17"/>
<g>
	
		<circle fill="none" stroke="#000000" stroke-width="2" stroke-linecap="round" stroke-linejoin="round" stroke-miterlimit="10" cx="295" cy="197.7" r="20.3"/>
	
		<line fill="none" stroke="#000000" stroke-width="2" stroke-linecap="round" stroke-linejoin="round" stroke-miterlimit="10" x1="308.6" y1="212.8" x2="321.5" y2="225.7"/>
</g>
<g>
	
		<circle fill="none" stroke="#F8B62D" stroke-width="2" stroke-linecap="round" stroke-linejoin="round" stroke-miterlimit="10" cx="224.2" cy="197.7" r="20.3"/>
	
		<line fill="none" stroke="#F8B62D" stroke-width="2" stroke-linecap="round" stroke-linejoin="round" stroke-miterlimit="10" x1="237.7" y1="212.8" x2="250.7" y2="225.7"/>
</g>
<path fill="none" stroke="#000000" stroke-width="2" stroke-linejoin="round" stroke-miterlimit="10" d="M390.8,179.3
	c0,13.5,0,26.9,0,40.4c-0.4-0.3-0.8-0.6-1.1-0.9c-3.6-2.8-7.1-5.6-10.7-8.4c-0.9-0.7-1.8-1-3-0.9c-2,0.1-4,0-6,0
	c-0.7,0-1.3-0.1-1.7-0.7c-0.2-0.3-0.5-0.8-0.5-1.2c0-5.4,0-10.9,0-16.3c0-1,0.9-1.9,2-1.9c2,0,3.9-0.1,5.9,0
	c1.7,0.1,3.1-0.4,4.3-1.4c2.9-2.3,5.8-4.6,8.7-6.9C389.3,180.6,390,180,390.8,179.3z"/>
<g>
	
		<line fill="none" stroke="#000000" stroke-width="2" stroke-linecap="round" stroke-linejoin="round" stroke-miterlimit="10" x1="466.8" y1="183" x2="502.9" y2="183"/>
	
		<line fill="none" stroke="#000000" stroke-width="2" stroke-linecap="round" stroke-linejoin="round" stroke-miterlimit="10" x1="466.8" y1="201.1" x2="502.9" y2="201.1"/>
	
		<line fill="none" stroke="#000000" stroke-width="2" stroke-linecap="round" stroke-linejoin="round" stroke-miterlimit="10" x1="466.8" y1="219.3" x2="502.9" y2="219.3"/>
</g>
<g>
	
		<polygon fill="none" stroke="#000000" stroke-width="2" stroke-linecap="round" stroke-linejoin="round" stroke-miterlimit="10" points="
		255.3,306.1 199.3,306.1 199.3,273.5 227.3,247.1 255.3,273.5 	"/>
	
		<polyline fill="none" stroke="#000000" stroke-width="2" stroke-linecap="round" stroke-linejoin="round" stroke-miterlimit="10" points="
		222.6,301.9 222.6,284.2 232,284.2 232,301.9 	"/>
</g>
<circle fill="none" stroke="#000000" stroke-width="2" stroke-linecap="round" stroke-linejoin="round" stroke-miterlimit="10" cx="311.9" cy="280" r="26.7"/>
<circle fill="none" stroke="#000000" stroke-width="2" stroke-linecap="round" stroke-linejoin="round" stroke-miterlimit="10" cx="662.6" cy="278" r="26.7"/>
<polygon fill="none" stroke="#000000" stroke-width="2" stroke-linecap="round" stroke-linejoin="round" stroke-miterlimit="10" points="
	308.5,287.6 308.5,272.4 321.7,280 "/>
<g>
	
		<polygon fill="none" stroke="#000000" stroke-width="2" stroke-linecap="round" stroke-linejoin="round" stroke-miterlimit="10" points="
		411.9,302.7 390.8,294.1 369.6,302.7 369.6,250.4 411.9,250.4 	"/>
	
		<line fill="none" stroke="#000000" stroke-width="2" stroke-linecap="round" stroke-linejoin="round" stroke-miterlimit="10" x1="373.9" y1="257.2" x2="378.5" y2="257.2"/>
	
		<line fill="none" stroke="#000000" stroke-width="2" stroke-linecap="round" stroke-linejoin="round" stroke-miterlimit="10" x1="373.9" y1="262.5" x2="378.5" y2="262.5"/>
	
		<line fill="none" stroke="#000000" stroke-width="2" stroke-linecap="round" stroke-linejoin="round" stroke-miterlimit="10" x1="373.9" y1="267.8" x2="378.5" y2="267.8"/>
</g>
<polyline fill="none" stroke="#000000" stroke-width="2" stroke-linecap="round" stroke-linejoin="round" stroke-miterlimit="10" points="
	785.1,274.4 785.1,302.7 764,294.1 742.8,302.7 742.8,250.4 785.1,250.4 "/>
<line fill="none" stroke="#000000" stroke-width="2" stroke-linecap="round" stroke-linejoin="round" stroke-miterlimit="10" x1="747" y1="257.2" x2="751.7" y2="257.2"/>
<g>
	
		<line fill="none" stroke="#000000" stroke-width="2" stroke-linecap="round" stroke-linejoin="round" stroke-miterlimit="10" x1="779.7" y1="262.5" x2="790.6" y2="262.5"/>
	
		<line fill="none" stroke="#000000" stroke-width="2" stroke-linecap="round" stroke-linejoin="round" stroke-miterlimit="10" x1="785.1" y1="267.9" x2="785.1" y2="257"/>
</g>
<line fill="none" stroke="#000000" stroke-width="2" stroke-linecap="round" stroke-linejoin="round" stroke-miterlimit="10" x1="747" y1="262.5" x2="751.7" y2="262.5"/>
<line fill="none" stroke="#000000" stroke-width="2" stroke-linecap="round" stroke-linejoin="round" stroke-miterlimit="10" x1="747" y1="267.8" x2="751.7" y2="267.8"/>
<g>
	<path fill="none" stroke="#000000" stroke-width="2" stroke-miterlimit="10" d="M481.3,305.6c-5.3,0-9.8-0.3-14.1-1.5
		c-2.6-0.7-5.1-1.6-7.2-3.4c-0.1,0-0.1-0.1-0.2-0.1c-1-0.8-1.6-1.8-1.4-3.2c0.2-2.4,0.3-4.9,0.5-7.3c0.2-2.2,0.7-4.4,1.8-6.3
		c1.3-2.2,3.2-3.6,5.5-4.6c2.5-1,5.1-1.6,7.7-2.1c0.1,0,0.4,0.1,0.5,0.2c1.5,1.4,3.3,2,5.2,2.1c2,0.2,3.9-0.1,5.6-1.1
		c0.5-0.3,0.9-0.5,1.3-0.9c0.3-0.3,0.6-0.4,1-0.3c2.3,0.5,4.5,1,6.7,1.8c4.3,1.6,6.8,4.5,7.6,9c0.4,2.2,0.5,4.4,0.7,6.6
		c0.1,1.3,0.1,2.6,0.1,4c0,0.4-0.2,0.8-0.4,1.1c-1.4,1.7-3.3,2.7-5.3,3.5c-3.6,1.4-7.3,2-11.1,2.3
		C484,305.5,482.2,305.6,481.3,305.6z"/>
	<path fill="none" stroke="#000000" stroke-width="2" stroke-miterlimit="10" d="M468.7,260.7c0.1-2.2,0.3-4.3,0.9-6.4
		c1.2-3.8,3.9-5.9,7.7-6.5c2.5-0.4,5-0.4,7.5,0.3c3.1,0.8,5.3,2.8,6.3,5.9c1.3,4.3,1.6,8.7,0.2,13c-1.1,3.6-3.3,6.5-6.8,8.1
		c-3.8,1.7-7.4,1-10.6-1.6c-3-2.5-4.5-5.9-4.9-9.7C468.8,262.7,468.8,261.7,468.7,260.7z"/>
</g>
<g>
	
		<polygon fill="none" stroke="#000000" stroke-width="2" stroke-linecap="round" stroke-linejoin="round" stroke-miterlimit="10" points="
		255.3,379.1 199.3,379.1 199.3,346.6 227.3,320.1 255.3,346.6 	"/>
	
		<polyline fill="none" stroke="#000000" stroke-width="2" stroke-linecap="round" stroke-linejoin="round" stroke-miterlimit="10" points="
		222.6,374.9 222.6,357.2 232,357.2 232,374.9 	"/>
</g>
<circle fill="none" stroke="#000000" stroke-width="2" stroke-linecap="round" stroke-linejoin="round" stroke-miterlimit="10" cx="311.9" cy="353.7" r="26.7"/>
<polygon fill="none" stroke="#000000" stroke-width="2" stroke-linecap="round" stroke-linejoin="round" stroke-miterlimit="10" points="
	308.5,360.6 308.5,345.4 321.7,353 "/>
<g>
	
		<polygon fill="none" stroke="#000000" stroke-width="2" stroke-linecap="round" stroke-linejoin="round" stroke-miterlimit="10" points="
		411.9,375.7 390.8,367.2 369.6,375.7 369.6,323.5 411.9,323.5 	"/>
	
		<line fill="none" stroke="#000000" stroke-width="2" stroke-linecap="round" stroke-linejoin="round" stroke-miterlimit="10" x1="373.9" y1="330.2" x2="378.5" y2="330.2"/>
	
		<line fill="none" stroke="#000000" stroke-width="2" stroke-linecap="round" stroke-linejoin="round" stroke-miterlimit="10" x1="373.9" y1="335.5" x2="378.5" y2="335.5"/>
	
		<line fill="none" stroke="#000000" stroke-width="2" stroke-linecap="round" stroke-linejoin="round" stroke-miterlimit="10" x1="373.9" y1="340.8" x2="378.5" y2="340.8"/>
</g>
<g>
	<path fill="none" stroke="#000000" stroke-width="2" stroke-miterlimit="10" d="M481.3,378.7c-5.3,0-9.8-0.3-14.1-1.5
		c-2.6-0.7-5.1-1.6-7.2-3.4c-0.1,0-0.1-0.1-0.2-0.1c-1-0.8-1.6-1.8-1.4-3.2c0.2-2.4,0.3-4.9,0.5-7.3c0.2-2.2,0.7-4.4,1.8-6.3
		c1.3-2.2,3.2-3.6,5.5-4.6c2.5-1,5.1-1.6,7.7-2.1c0.1,0,0.4,0.1,0.5,0.2c1.5,1.4,3.3,2,5.2,2.1c2,0.2,3.9-0.1,5.6-1.1
		c0.5-0.3,0.9-0.5,1.3-0.9c0.3-0.3,0.6-0.4,1-0.3c2.3,0.5,4.5,1,6.7,1.8c4.3,1.6,6.8,4.5,7.6,9c0.4,2.2,0.5,4.4,0.7,6.6
		c0.1,1.3,0.1,2.6,0.1,4c0,0.4-0.2,0.8-0.4,1.1c-1.4,1.7-3.3,2.7-5.3,3.5c-3.6,1.4-7.3,2-11.1,2.3
		C484,378.5,482.2,378.6,481.3,378.7z"/>
	<path fill="none" stroke="#000000" stroke-width="2" stroke-miterlimit="10" d="M468.7,333.7c0.1-2.2,0.3-4.3,0.9-6.4
		c1.2-3.8,3.9-5.9,7.7-6.5c2.5-0.4,5-0.4,7.5,0.3c3.1,0.8,5.3,2.8,6.3,5.9c1.3,4.3,1.6,8.7,0.2,13c-1.1,3.6-3.3,6.5-6.8,8.1
		c-3.8,1.7-7.4,1-10.6-1.6c-3-2.5-4.5-5.9-4.9-9.7C468.8,335.7,468.8,334.7,468.7,333.7z"/>
</g>
<path fill="none" stroke="#000000" stroke-width="2" stroke-linecap="round" stroke-linejoin="round" stroke-miterlimit="10" d="
	M400.1,190c0,0,9.3,7.9,0,18.8"/>
<path fill="none" stroke="#000000" stroke-width="2" stroke-linecap="round" stroke-linejoin="round" stroke-miterlimit="10" d="
	M405.7,183.9c0,0,17.5,13.8,0,31.1"/>
<path fill="none" stroke="#000000" stroke-width="2" stroke-linecap="round" stroke-linejoin="round" stroke-miterlimit="10" d="
	M412,178c0,0,23.2,20.4,0,42.6"/>
<g>
	
		<line fill="none" stroke="#000000" stroke-width="2" stroke-linecap="round" stroke-linejoin="round" stroke-miterlimit="10" x1="562.6" y1="178.1" x2="539.5" y2="201.1"/>
	
		<line fill="none" stroke="#000000" stroke-width="2" stroke-linecap="round" stroke-linejoin="round" stroke-miterlimit="10" x1="562.6" y1="224.2" x2="539.5" y2="201.1"/>
</g>
<path fill="none" stroke="#000000" stroke-width="2" stroke-linecap="round" stroke-linejoin="round" stroke-miterlimit="10" d="
	M639.3,178.4h-31.9c-4.6,0-8.3,3.7-8.3,8.3v20.3c0,4.2,3.1,7.7,7.2,8.2v8.4l6.9-8.3h26.1c4.6,0,8.3-3.7,8.3-8.3v-20.3
	C647.7,182.2,643.9,178.4,639.3,178.4z"/>
<polygon fill="none" stroke="#000000" stroke-width="2" stroke-linecap="round" stroke-linejoin="round" stroke-miterlimit="10" points="
	716,169.7 722.4,189.2 742.8,189.2 726.3,201.2 732.6,220.6 716,208.6 699.5,220.6 705.8,201.2 689.3,189.2 709.7,189.2 "/>
<g>
	
		<circle fill="none" stroke="#000000" stroke-width="2" stroke-linecap="round" stroke-linejoin="round" stroke-miterlimit="10" cx="827.2" cy="214.6" r="6.9"/>
	
		<circle fill="none" stroke="#000000" stroke-width="2" stroke-linecap="round" stroke-linejoin="round" stroke-miterlimit="10" cx="827.2" cy="179.3" r="6.9"/>
	
		<circle fill="none" stroke="#000000" stroke-width="2" stroke-linecap="round" stroke-linejoin="round" stroke-miterlimit="10" cx="790.1" cy="196.9" r="6.9"/>
	
		<line fill="none" stroke="#000000" stroke-width="2" stroke-linecap="round" stroke-linejoin="round" stroke-miterlimit="10" x1="820.5" y1="181.1" x2="798.9" y2="191.6"/>
	
		<line fill="none" stroke="#000000" stroke-width="2" stroke-linecap="round" stroke-linejoin="round" stroke-miterlimit="10" x1="817.7" y1="210.9" x2="796.9" y2="199.9"/>
</g>
<g>
	<path fill="none" stroke="#000000" stroke-width="2" stroke-linecap="round" stroke-linejoin="round" stroke-miterlimit="10" d="
		M926.8,203.3v-11.2h-7.6c-0.2-0.7-0.5-1.4-0.9-2.1l5.3-5.3l-7.9-7.9l-5.3,5.3c-0.7-0.3-1.4-0.6-2.1-0.9v-7.6h-11.2v7.6
		c-0.7,0.2-1.4,0.5-2.1,0.9l-5.3-5.3l-7.9,7.9l5.3,5.3c-0.3,0.7-0.6,1.4-0.9,2.1h-7.6v11.2h7.6c0.2,0.7,0.5,1.4,0.9,2.1l-5.3,5.3
		l7.9,7.9l5.3-5.3c0.7,0.3,1.4,0.6,2.1,0.9v7.6h11.2v-7.6c0.7-0.2,1.4-0.5,2.1-0.9l5.3,5.3l7.9-7.9l-5.3-5.3
		c0.3-0.7,0.6-1.4,0.9-2.1H926.8z M902.8,206.2c-4.7,0-8.5-3.8-8.5-8.5c0-4.7,3.8-8.5,8.5-8.5c4.7,0,8.5,3.8,8.5,8.5
		C911.3,202.4,907.5,206.2,902.8,206.2z"/>
	
		<circle fill="none" stroke="#000000" stroke-width="2" stroke-linecap="round" stroke-linejoin="round" stroke-miterlimit="10" cx="902.8" cy="197.7" r="8.5"/>
</g>
<path fill="none" stroke="#000000" stroke-width="2" stroke-linecap="round" stroke-linejoin="round" stroke-miterlimit="10" d="
	M586.4,289.2c-10.7,0-19.3-8.6-19.3-19.3c0-9.4,6.7-17.2,15.6-18.9c-1.4-0.2-2.9-0.4-4.4-0.4c-15.1,0-27.3,12.2-27.3,27.3
	c0,15.1,12.2,27.3,27.3,27.3c15.1,0,27.3-12.2,27.3-27.3c0-1.5-0.1-3-0.4-4.4C603.6,282.5,595.8,289.2,586.4,289.2z"/>
<line fill="none" stroke="#000000" stroke-width="2" stroke-linecap="round" stroke-linejoin="round" stroke-miterlimit="10" x1="662.6" y1="278" x2="662.6" y2="259"/>
<line fill="none" stroke="#000000" stroke-width="2" stroke-linecap="round" stroke-linejoin="round" stroke-miterlimit="10" x1="662.6" y1="278" x2="681.6" y2="278"/>
</svg>
